# xmcd
#
# Track frame offsets:
#	150
#	16696
#	45180
#	66744
#	85274
#	106978
#	122490
#	147709
#	167258
#	184886
#
# Disc length: 2666 seconds
#
# Revision: 1
# Processed by: cddbd v1.4b41PL1 Copyright (c) Steve Scherf et al.
# Submitted via: audiograbber 1.80
#
DISCID=7f0a680a
DTITLE=Dee Carstensen - Home Away From Home
DYEAR=1900
DGENRE=
TTITLE0=This Time Around
TTITLE1=Waterhole
TTITLE2=Before You
TTITLE3=Finally Free
TTITLE4=The Light
TTITLE5=The Wish
TTITLE6=Angel
TTITLE7=For What It's Worth
TTITLE8=The Last Time It Mattered
TTITLE9=Somewhere Over The Rainbow
EXTD=
EXTT0=
EXTT1=
EXTT2=
EXTT3=
EXTT4=
EXTT5=
EXTT6=
EXTT7=
EXTT8=
EXTT9=
PLAYORDER=
